:SAMPLES-PER-SECOND 30
:FRAME-RANGE 1-663
:FULLY-SPECIFIED
:DEGREES
311
root  -22.4074 39.255 68.1923 -175.433 77.0284 177.769
RightUpLeg  -19.2938 8.70448 -2.63239
RightLeg  16.4913 4.45672 0.984906
RightFoot  -3.50052 -0.0869953 0.921655
RightToes  -3.4386e-010 1.2921e-014 -6.02303e-014
Spine  -1.3654 -8.24043 -6.78002
Spine1  6.913 -10.5786 8.54575
HEad  20.049 3.36405 -1.66074
LeftShoulder1  3.651 -12.907 -15.9956
LeftArm  -8.23701 -38.8505 -42.3244
LeftForeArm  4.81669 -2.31475 -10.5891
LeftHand  0.238728 0.643403 -5.98878
RightShoulder  1.5108 2.07624 21.8031
RightArm  -7.04181 28.8895 55.2071
RightForeArm  5.3391 15.7902 7.18862
RightHand  -0.120845 -3.0181 -5.26833
LeftUpLeg  -12.4982 11.2845 7.44987
LeftLeg  14.402 25.808 6.72517
LeftFoot  0.309773 0.925317 -9.07558
LeftToes  -7.12384e-010 -7.51861e-011 -8.34901e-011
312
root  -22.3178 39.2831 67.8012 -174.918 77.0462 178.29
RightUpLeg  -18.6918 7.83167 -2.92971
RightLeg  15.9727 5.42483 1.12997
RightFoot  -3.80457 -0.12843 1.5563
RightToes  -3.4386e-010 1.2921e-014 -6.02303e-014
Spine  -1.56613 -8.12621 -6.91954
Spine1  6.66721 -10.4795 8.80114
HEad  20.9684 4.81633 -2.81407
LeftShoulder1  3.55494 -12.4888 -15.9856
LeftArm  -9.76195 -36.5541 -41.897
LeftForeArm  5.22515 -2.97657 -10.0047
LeftHand  0.253046 0.330445 -5.90253
RightShoulder  1.51984 2.11568 21.7646
RightArm  -5.83783 28.9445 55.385
RightForeArm  6.51151 15.9093 7.25938
RightHand  -0.142899 -2.61053 -5.50421
LeftUpLeg  -12.0674 11.1361 7.18899
LeftLeg  14.2617 25.7338 6.57861
LeftFoot  -0.175979 0.947875 -9.67127
LeftToes  -7.12384e-010 -7.51861e-011 -8.34901e-011
313
root  -22.2265 39.3326 67.4335 -175.46 76.1065 177.849
RightUpLeg  -17.7628 6.07957 -3.36083
RightLeg  15.3859 6.34641 1.16704
RightFoot  -4.21382 -0.157257 2.06386
RightToes  -3.4386e-010 1.2921e-014 -6.02303e-014
Spine  -1.71279 -7.96934 -6.72768
Spine1  6.56167 -10.2275 8.4913
HEad  21.5652 5.68406 -3.38979
LeftShoulder1  3.43655 -11.8667 -16.145
LeftArm  -11.0638 -34.7542 -42.0257
LeftForeArm  6.119 -3.29783 -9.47128
LeftHand  0.232198 0.316021 -5.40301
RightShoulder  1.5041 2.05417 21.792
RightArm  -4.94827 27.5134 54.8933
RightForeArm  6.34759 17.2094 6.6856
RightHand  -0.159748 -1.37172 -4.45479
LeftUpLeg  -12.1152 11.2448 6.56002
LeftLeg  14.6504 24.6057 6.50793
LeftFoot  -0.450345 0.940424 -9.82046
LeftToes  -7.12384e-010 -7.51861e-011 -8.34901e-011
314
root  -22.1587 39.374 67.1104 -175.558 74.3799 177.828
RightUpLeg  -16.7895 4.12508 -3.63222
RightLeg  14.7573 6.70115 0.931913
RightFoot  -4.56525 -0.186602 2.62612
RightToes  -3.4386e-010 1.2921e-014 -6.02303e-014
Spine  -1.74236 -7.69104 -6.02635
Spine1  6.35902 -9.81882 8.00033
HEad  21.7947 5.98727 -3.72235
LeftShoulder1  3.31285 -11.1571 -16.4281
LeftArm  -11.3097 -33.0083 -42.7382
LeftForeArm  6.25076 -3.76613 -9.30508
LeftHand  0.176146 0.437131 -4.22808
RightShoulder  1.47734 1.92366 21.9885
RightArm  -4.11803 25.2306 53.4004
RightForeArm  6.0859 18.8811 5.93132
RightHand  -0.132453 0.0343926 -2.85701
LeftUpLeg  -13.039 11.9158 5.92565
LeftLeg  16.0858 21.9505 6.72378
LeftFoot  -0.524909 0.995726 -10.4639
LeftToes  -7.12384e-010 -7.51861e-011 -8.34901e-011
315
root  -22.1051 39.3747 66.82 -175.634 71.9009 177.889
RightUpLeg  -15.8899 1.51681 -3.9463
RightLeg  14.6047 6.94756 0.928761
RightFoot  -5.1915 -0.199355 3.05215
RightToes  -3.4386e-010 1.2921e-014 -6.02303e-014
Spine  -1.69401 -7.36739 -5.07419
Spine1  6.2489 -9.38063 7.50897
HEad  21.6451 5.99814 -4.18502
LeftShoulder1  3.17549 -10.3657 -16.7818
LeftArm  -11.0383 -31.5523 -43.7244
LeftForeArm  7.86351 -3.80322 -9.32799
LeftHand  0.155266 0.353314 -3.65994
RightShoulder  1.42445 1.73682 21.9781
RightArm  -4.9328 22.4654 51.8241
RightForeArm  8.03338 19.829 5.38717
RightHand  -0.0759788 1.46364 -1.42623
LeftUpLeg  -14.7419 12.8345 5.33714
LeftLeg  18.7136 17.9121 6.90147
LeftFoot  -0.583787 1.07618 -11.3656
LeftToes  -7.12384e-010 -7.51861e-011 -8.34901e-011
316
root  -22.0534 39.3415 66.5576 -175.754 68.6918 177.961
RightUpLeg  -14.9634 -1.59173 -4.38892
RightLeg  14.8336 6.969 1.14287
RightFoot  -6.12114 -0.204284 3.56614
RightToes  -3.4386e-010 1.2921e-014 -6.02303e-014
Spine  -1.50839 -7.0607 -3.96791
Spine1  6.0986 -8.94329 6.93719
HEad  21.4998 5.87109 -4.87079
LeftShoulder1  3.07776 -9.8731 -16.9214
LeftArm  -10.9018 -29.3635 -44.9524
LeftForeArm  9.57363 -4.2833 -9.30721
LeftHand  0.135013 0.709476 -3.48554
RightShoulder  1.35958 1.49354 22.0525
RightArm  -6.11947 19.2621 50.1845
RightForeArm  8.90249 20.4666 5.0598
RightHand  -0.00704164 2.27377 -0.294683
LeftUpLeg  -17.0433 13.4293 5.05286
LeftLeg  22.3308 13.4403 6.31459
LeftFoot  -0.414107 1.1844 -12.321
LeftToes  -7.12384e-010 -7.51861e-011 -8.34901e-011
317
root  -21.99 39.2935 66.3282 -175.727 65.1249 178.122
RightUpLeg  -14.0421 -4.40615 -4.90956
RightLeg  15.1449 6.34249 1.4022
RightFoot  -7.06991 -0.194708 3.92995
RightToes  -3.4386e-010 1.2921e-014 -6.02303e-014
Spine  -1.40092 -6.76297 -3.01483
Spine1  5.96098 -8.54307 6.51655
HEad  21.6494 6.06179 -5.70303
LeftShoulder1  2.94467 -9.25733 -17.0162
LeftArm  -10.3427 -26.7742 -46.1782
LeftForeArm  11.0751 -4.87691 -9.46874
LeftHand  0.120209 0.724729 -3.12674
RightShoulder  1.31388 1.32905 22.0648
RightArm  -7.71555 15.9529 49.0847
RightForeArm  10.4922 20.3671 4.98167
RightHand  -0.0158121 2.13222 -0.423983
LeftUpLeg  -19.8292 14.7815 4.89633
LeftLeg  26.362 7.81316 4.52662
LeftFoot  0.389838 1.3256 -12.8844
LeftToes  -7.12384e-010 -7.51861e-011 -8.34901e-011
318
root  -21.901 39.2209 66.0803 -175.602 61.3629 178.464
RightUpLeg  -12.9714 -6.71425 -5.47476
RightLeg  15.6155 5.08402 1.63432
RightFoot  -8.14209 -0.175509 4.30054
RightToes  -3.4386e-010 1.2921e-014 -6.02303e-014
Spine  -1.29929 -6.45354 -2.12324
Spine1  5.87913 -8.14437 6.17375
HEad  22.2036 6.37807 -6.16748
LeftShoulder1  2.79993 -8.60866 -17.0845
LeftArm  -10.0651 -24.1759 -47.2905
LeftForeArm  12.1838 -4.88885 -9.49938
LeftHand  0.111499 0.787287 -2.95666
RightShoulder  1.27116 1.17206 22.099
RightArm  -10.8152 13.0002 48.6232
RightForeArm  15.8718 18.9239 5.20686
RightHand  -0.0884245 1.31656 -1.66014
LeftUpLeg  -22.4093 15.2083 5.18809
LeftLeg  30.195 1.7332 1.43365
LeftFoot  1.31856 1.32839 -12.0138
LeftToes  -7.12384e-010 -7.51861e-011 -8.34901e-011
319
root  -21.7963 39.1551 65.781 -175.292 58.0121 178.906
RightUpLeg  -11.8785 -8.27264 -5.99379
RightLeg  15.8914 3.4944 1.72011
RightFoot  -9.08786 -0.155651 4.77083
RightToes  -3.4386e-010 1.2921e-014 -6.02303e-014
Spine  -1.21889 -5.99308 -1.12946
Spine1  5.5385 -7.50342 5.52616
HEad  22.8825 6.8837 -6.27565
LeftShoulder1  2.62701 -7.80177 -17.2492
LeftArm  -9.53557 -21.1215 -48.2056
LeftForeArm  11.4082 -5.17308 -9.63856
LeftHand  0.110184 0.848622 -2.97215
RightShoulder  1.2865 1.16712 22.499
RightArm  -14.5236 10.764 47.9994
RightForeArm  23.1571 16.0074 6.02095
RightHand  -0.174089 -0.0337367 -3.7939
LeftUpLeg  -23.8966 14.0106 6.12978
LeftLeg  31.7897 -2.06578 -1.0352
LeftFoot  -0.828406 1.22108 -13.1734
LeftToes  -7.12384e-010 -7.51861e-011 -8.34901e-011
320
root  -21.6305 39.1719 65.424 -175.106 55.0301 179.208
RightUpLeg  -10.0847 -8.72406 -6.47658
RightLeg  14.893 1.18988 1.39836
RightFoot  -9.49636 -0.153105 5.49535
RightToes  -3.4386e-010 1.2921e-014 -6.02303e-014
Spine  -1.76546 -5.52478 -0.465452
Spine1  6.01157 -6.79965 4.46954
HEad  23.1529 7.52356 -6.10184
LeftShoulder1  2.43006 -6.84782 -17.5564
LeftArm  -10.374 -17.9504 -48.9609
LeftForeArm  10.2492 -5.14202 -9.29015
LeftHand  0.123337 0.621915 -3.121
RightShoulder  1.32474 1.24742 22.8583
RightArm  -19.5551 9.4876 48.0925
RightForeArm  32.2033 11.3922 6.8944
RightHand  -0.215044 -1.35154 -6.04254
LeftUpLeg  -24.0452 13.0881 7.28937
LeftLeg  29.9328 -2.6765 -1.32556
LeftFoot  -3.6705 0.925937 -13.4351
LeftToes  -7.12384e-010 -7.51861e-011 -8.34901e-011
321
root  -21.5069 39.1974 65.0291 -174.98 53.127 178.668
RightUpLeg  -9.35943 -9.21825 -7.29582
RightLeg  14.1711 -0.12924 1.16994
RightFoot  -9.71611 -0.153347 6.14813
RightToes  -3.4386e-010 1.2921e-014 -6.02303e-014
Spine  -2.07192 -4.76423 -0.314135
Spine1  5.55302 -5.6931 3.1077
HEad  23.0254 7.91473 -5.82829
LeftShoulder1  2.21969 -5.76974 -18.125
LeftArm  -10.4934 -14.2757 -48.8156
LeftForeArm  8.26816 -5.81693 -9.27007
LeftHand  0.0798449 1.11126 -2.36405
RightShoulder  1.37512 1.38726 23.0857
RightArm  -21.8985 8.89886 49.0746
RightForeArm  40.0407 5.92417 6.67187
RightHand  -0.188023 -2.94631 -8.40467
LeftUpLeg  -23.8159 12.6807 7.88728
LeftLeg  25.2003 0.329494 0.501146
LeftFoot  -4.90797 0.719718 -12.2477
LeftToes  -7.12384e-010 -7.51861e-011 -8.34901e-011
